<?xml version="1.0" standalone="no"?>
<!DOCTYPE svg PUBLIC "-//W3C//DTD SVG 20010904//EN"
 "http://www.w3.org/TR/2001/REC-SVG-20010904/DTD/svg10.dtd">
<svg version="1.0" xmlns="http://www.w3.org/2000/svg"
 width="512.000000pt" height="512.000000pt" viewBox="0 0 512.000000 512.000000"
 preserveAspectRatio="xMidYMid meet">

<g transform="translate(0.000000,512.000000) scale(0.100000,-0.100000)"
fill="#000000" stroke="none">
<path d="M2370 3563 c-278 -44 -489 -136 -660 -288 -183 -164 -305 -354 -389
-606 l-32 -96 -58 -6 c-147 -13 -264 -122 -300 -278 -14 -61 -13 -194 2 -253
l13 -49 62 69 c59 66 62 71 62 121 0 89 37 148 115 184 65 30 73 27 68 -28
l-5 -48 52 50 c29 28 86 102 128 165 102 156 246 300 355 355 43 22 99 51 125
65 41 22 60 25 148 25 l101 0 144 -73 c227 -115 271 -116 493 -7 168 81 193
88 280 83 70 -5 145 -31 291 -103 97 -48 287 -244 350 -363 27 -50 129 -172
144 -172 4 0 5 16 3 36 -4 36 -4 37 24 30 95 -24 142 -79 151 -173 5 -54 9
-63 68 -128 35 -38 66 -67 70 -63 16 15 25 156 15 228 -26 188 -143 312 -309
327 l-58 5 -28 90 c-63 202 -187 410 -330 553 -185 186 -403 295 -680 340 -82
14 -348 19 -415 8z"/>
<path d="M1895 2804 c-129 -32 -289 -180 -415 -385 -55 -90 -75 -111 -212
-231 -162 -141 -258 -250 -389 -437 -179 -257 -259 -454 -260 -637 0 -200 99
-327 311 -398 113 -38 294 -48 385 -21 164 47 329 183 465 381 29 44 54 80 56
82 1 2 28 -8 60 -21 268 -113 602 -152 905 -108 152 22 298 59 409 105 59 24
66 25 75 11 137 -221 279 -375 410 -442 79 -41 199 -73 267 -73 18 1 68 7 110
14 206 37 371 193 418 395 20 84 8 230 -25 321 -54 149 -149 311 -289 495 -82
109 -135 164 -317 331 -141 129 -162 153 -227 257 -40 62 -97 142 -128 176
-152 167 -345 238 -427 156 -27 -26 -20 -42 31 -71 62 -36 92 -63 92 -86 0
-26 -40 -23 -98 6 -151 77 -328 43 -409 -77 -77 -115 -64 -328 28 -425 67 -71
136 -101 341 -147 139 -31 243 -65 298 -98 104 -62 345 -319 396 -423 30 -62
37 -137 13 -142 -17 -3 -39 22 -158 183 -32 44 -85 109 -118 144 l-59 64 -36
-74 c-48 -95 -102 -157 -187 -214 -183 -121 -418 -173 -726 -162 -244 9 -434
62 -587 163 -85 57 -142 121 -183 207 l-33 67 -57 -62 c-31 -35 -89 -106 -127
-158 -124 -166 -158 -193 -158 -122 0 60 50 146 158 272 201 235 307 302 567
355 206 42 315 100 372 194 77 128 65 320 -25 414 -88 92 -241 109 -384 42
-64 -30 -98 -32 -98 -7 0 22 31 51 87 82 54 30 60 47 29 78 -19 20 -37 26 -78
28 -29 1 -62 1 -73 -2z"/>
<path d="M2540 2148 c0 -7 -18 -37 -40 -65 l-40 -53 23 -14 c35 -23 71 -28
114 -17 62 17 71 34 39 72 -15 17 -33 44 -42 60 -15 29 -54 41 -54 17z"/>
<path d="M2499 1877 c-20 -13 -46 -47 -64 -82 -38 -75 -47 -198 -18 -255 28
-54 75 -80 145 -80 67 0 107 18 131 59 55 93 8 308 -78 361 -42 26 -74 25
-116 -3z"/>
</g>
</svg>