<?xml version="1.0" standalone="no"?>
<!DOCTYPE svg PUBLIC "-//W3C//DTD SVG 20010904//EN"
 "http://www.w3.org/TR/2001/REC-SVG-20010904/DTD/svg10.dtd">
<svg version="1.0" xmlns="http://www.w3.org/2000/svg"
 width="512.000000pt" height="512.000000pt" viewBox="0 0 512.000000 512.000000"
 preserveAspectRatio="xMidYMid meet">

<g transform="translate(0.000000,512.000000) scale(0.100000,-0.100000)"
fill="#000000" stroke="none">
<path d="M2336 3585 c-477 -78 -860 -415 -1015 -893 l-29 -87 -62 -8 c-190
-24 -310 -178 -310 -397 0 -150 43 -265 129 -342 67 -61 113 -81 192 -86 l66
-4 31 -77 c32 -77 88 -175 129 -226 l22 -27 73 56 c40 30 93 73 118 94 l44 39
-16 39 c-46 107 -47 151 -8 327 36 163 39 262 9 408 -32 154 -25 253 24 353
45 89 112 162 182 196 42 21 65 24 145 25 l95 0 161 -77 c235 -113 262 -113
479 -8 158 77 220 94 304 86 126 -13 220 -85 288 -222 49 -101 56 -198 23
-359 -29 -144 -25 -313 11 -420 29 -89 31 -187 5 -273 l-19 -63 34 -35 c19
-20 70 -63 114 -96 l79 -60 33 38 c34 40 143 247 143 271 0 9 14 13 45 13 111
0 238 88 295 203 57 117 64 264 19 401 -41 125 -148 208 -286 222 l-60 6 -12
47 c-21 79 -81 222 -128 306 -196 346 -493 556 -878 620 -134 23 -362 27 -469
10z m-1081 -1232 c-3 -32 -8 -81 -11 -108 -5 -50 11 -261 22 -290 5 -12 -2
-15 -34 -15 -75 0 -129 72 -153 205 -22 116 14 199 105 241 75 35 78 34 71
-33z m2700 24 c25 -14 49 -39 65 -67 21 -38 25 -57 24 -126 0 -70 -5 -91 -30
-140 -31 -64 -79 -104 -123 -104 l-26 0 0 235 0 236 25 -6 c14 -4 43 -16 65
-28z"/>
<path d="M2080 2558 c-52 -35 -80 -91 -80 -162 0 -139 105 -229 210 -181 113
51 135 239 40 330 -42 41 -121 47 -170 13z"/>
<path d="M2889 2557 c-52 -35 -79 -91 -79 -163 0 -82 30 -139 91 -172 110 -59
219 27 219 172 0 69 -20 115 -66 156 -45 39 -113 42 -165 7z"/>
<path d="M2487 2180 c-41 -13 -57 -29 -57 -59 0 -39 24 -67 75 -86 57 -22 104
-14 150 27 40 35 46 75 15 103 -23 20 -137 30 -183 15z"/>
<path d="M2245 2012 c-103 -36 -198 -120 -335 -298 -174 -224 -236 -276 -545
-454 -227 -131 -260 -154 -294 -203 -57 -83 -62 -175 -15 -268 46 -92 141
-149 259 -157 163 -10 310 63 615 307 211 169 306 215 553 267 186 39 250 67
312 136 56 63 79 130 79 233 0 145 -43 227 -149 280 -83 41 -165 40 -293 -5
-63 -22 -97 -29 -104 -22 -17 17 8 48 65 80 89 50 98 80 32 107 -46 20 -118
18 -180 -3z"/>
<path d="M2708 2014 c-40 -21 -35 -39 15 -53 57 -17 130 -65 162 -107 56 -73
79 -142 83 -247 5 -106 -6 -165 -43 -240 -33 -64 -72 -111 -124 -149 l-44 -32
79 -26 c114 -38 210 -93 337 -193 266 -210 329 -252 452 -303 61 -24 83 -28
170 -29 95 0 103 2 163 34 98 54 152 138 152 239 0 122 -64 198 -259 305 -318
175 -427 259 -576 442 -184 225 -284 318 -387 357 -58 22 -142 23 -180 2z"/>
<path d="M2480 1104 c-260 -57 -249 -69 63 -69 207 0 318 8 304 21 -6 7 -266
64 -285 63 -9 0 -46 -7 -82 -15z"/>
</g>
</svg>