<?xml version="1.0" standalone="no"?>
<!DOCTYPE svg PUBLIC "-//W3C//DTD SVG 20010904//EN"
 "http://www.w3.org/TR/2001/REC-SVG-20010904/DTD/svg10.dtd">
<svg version="1.0" xmlns="http://www.w3.org/2000/svg"
 width="655.000000pt" height="655.000000pt" viewBox="0 0 655.000000 655.000000"
 preserveAspectRatio="xMidYMid meet">

<g transform="translate(0.000000,655.000000) scale(0.100000,-0.100000)"
fill="#0059FF" stroke="none">
<path d="M3035 6304 c-16 -2 -79 -9 -140 -15 -517 -50 -1015 -225 -1440 -507
-202 -134 -343 -249 -506 -411 -482 -482 -776 -1085 -861 -1771 -16 -135 -16
-504 0 -640 51 -417 174 -791 372 -1137 387 -672 994 -1163 1747 -1412 662
-219 1409 -215 2069 10 479 163 880 413 1234 769 494 496 791 1122 860 1809
13 133 13 429 0 562 -79 790 -480 1526 -1105 2028 -514 413 -1082 641 -1759
706 -142 13 -389 18 -471 9z m1502 -356 c216 -106 306 -351 204 -558 -32 -65
-360 -482 -375 -477 -20 6 -346 422 -372 473 -76 154 -46 344 74 467 96 98
175 129 317 124 82 -3 109 -9 152 -29z m28 -1179 c89 -47 144 -132 147 -226 3
-99 -31 -169 -114 -235 -40 -31 -58 -36 -378 -92 -74 -13 -169 -33 -210 -45
-41 -11 -102 -27 -135 -35 -144 -35 -345 -99 -397 -127 -20 -10 -42 -19 -49
-19 -7 0 -40 -13 -73 -29 -34 -16 -68 -31 -76 -35 -8 -3 -37 -19 -65 -35 -27
-17 -67 -39 -88 -51 -63 -35 -163 -141 -171 -182 -3 -19 -4 -42 -2 -49 2 -8 7
-26 10 -40 4 -17 20 -36 43 -50 49 -30 132 -69 146 -69 7 -1 30 -9 52 -20 22
-11 47 -19 55 -20 8 0 35 -6 60 -15 43 -13 137 -41 245 -70 115 -32 203 -59
247 -76 26 -11 52 -19 59 -19 18 0 234 -107 297 -148 83 -53 165 -130 240
-227 28 -36 71 -107 77 -126 4 -12 18 -43 31 -67 13 -25 24 -52 24 -61 0 -9 9
-44 20 -78 30 -96 35 -193 16 -306 -10 -55 -24 -115 -33 -135 -39 -91 -77
-161 -115 -216 -45 -63 -204 -226 -254 -260 -184 -123 -212 -140 -339 -204
-121 -60 -241 -113 -320 -142 -27 -10 -68 -25 -90 -33 -129 -50 -423 -137
-610 -182 -55 -13 -112 -28 -127 -34 -15 -6 -69 -18 -120 -26 -51 -9 -124 -25
-163 -35 -38 -11 -108 -24 -155 -30 -47 -6 -124 -20 -171 -30 -115 -26 -315
-50 -412 -50 -123 0 -191 43 -241 153 -47 101 -27 215 52 293 54 55 85 69 167
79 33 3 103 15 155 26 52 10 146 26 208 34 62 8 140 22 175 31 34 9 107 24
162 34 55 10 136 27 180 38 44 12 107 28 140 36 57 14 197 51 352 95 39 11 84
26 100 34 15 8 48 19 73 25 25 6 63 20 85 32 21 11 46 20 55 20 8 0 35 11 60
24 25 13 59 26 75 30 17 4 37 13 45 21 8 7 26 16 39 20 19 6 98 47 190 100 50
29 151 106 196 150 76 75 105 131 105 203 0 180 -58 261 -260 364 -30 15 -62
28 -70 28 -8 0 -24 7 -34 15 -11 8 -28 15 -39 15 -10 0 -33 7 -50 15 -18 8
-50 19 -72 24 -22 6 -74 20 -115 32 -41 11 -100 27 -130 35 -77 19 -144 38
-220 63 -70 23 -69 23 -174 71 -238 109 -392 286 -447 512 -22 93 -22 103 -10
205 7 60 19 118 27 130 8 12 14 28 14 35 0 17 32 77 78 148 50 78 182 205 282
272 112 75 342 191 432 218 21 6 40 15 43 20 3 4 29 14 57 20 29 7 69 21 88
31 20 9 54 21 75 25 22 3 63 15 90 25 28 10 82 25 120 33 39 8 90 22 114 31
25 8 76 20 115 26 39 6 103 19 143 30 97 27 240 47 343 48 69 1 93 -3 125 -20z
m-2600 -1740 c210 -39 394 -225 440 -444 27 -129 11 -249 -50 -370 -27 -55
-240 -336 -393 -520 -9 -11 -35 -43 -57 -70 -40 -50 -54 -65 -67 -65 -3 0 -82
96 -174 213 -93 116 -171 214 -174 217 -29 27 -128 163 -154 213 -49 93 -61
148 -61 272 1 170 44 274 166 397 113 116 228 164 395 167 39 0 97 -4 129 -10z"/>
<path d="M4290 5698 c-76 -52 -99 -132 -58 -203 26 -43 88 -85 129 -85 56 0
119 41 148 97 18 34 13 104 -9 141 -44 71 -143 95 -210 50z"/>
<path d="M1774 2673 c-32 -6 -102 -70 -124 -114 -39 -75 -19 -179 45 -244 79
-78 229 -75 301 7 46 52 57 80 57 148 0 68 -22 120 -70 162 -44 40 -129 57
-209 41z"/>
</g>
</svg>
