<?xml version="1.0" standalone="no"?>
<!DOCTYPE svg PUBLIC "-//W3C//DTD SVG 20010904//EN"
 "http://www.w3.org/TR/2001/REC-SVG-20010904/DTD/svg10.dtd">

<svg version="1.0" xmlns="http://www.w3.org/2000/svg"
    width="40px" height="40px" viewBox="0 0 512 512"
    preserveAspectRatio="xMidYMid meet">

<g transform="translate(0.000000,512.000000) scale(0.100000,-0.100000)"
fill="#070054" stroke="none">
<path d="M2430 5114 c-245 -28 -400 -72 -595 -169 -409 -204 -722 -591 -835
-1033 -46 -183 -62 -401 -40 -557 69 -480 501 -1445 1187 -2650 160 -281 406
-695 413 -695 15 0 412 685 657 1135 541 991 882 1790 943 2210 52 363 -75
812 -319 1130 -248 324 -603 537 -1016 611 -80 14 -329 26 -395 18z m346 -379
c507 -89 912 -490 1010 -1000 20 -105 23 -325 5 -426 -88 -517 -473 -915 -991
-1026 -118 -25 -362 -25 -480 0 -518 111 -903 510 -991 1026 -18 102 -15 321
5 426 98 507 500 908 1002 999 108 19 330 20 440 1z"/>
<path d="M1470 3555 l0 -315 85 0 85 0 0 30 c0 93 96 180 201 180 14 0 49 -12
77 -26 57 -29 95 -80 107 -146 l7 -38 454 0 454 0 0 28 c0 46 41 114 88 147
37 26 53 30 107 30 54 0 70 -4 107 -30 47 -33 88 -101 88 -147 l0 -28 190 0
190 0 0 136 c0 123 -4 153 -40 311 -22 97 -40 177 -40 179 0 2 -486 4 -1080 4
l-1080 0 0 -315z m240 140 l0 -125 -90 0 -90 0 0 125 0 125 90 0 90 0 0 -125z
m370 0 l0 -125 -160 0 -160 0 0 125 0 125 160 0 160 0 0 -125z m370 0 l0 -125
-160 0 -160 0 0 125 0 125 160 0 160 0 0 -125z m378 -142 l2 -263 -165 0 -165
0 0 265 0 265 163 -2 162 -3 3 -262z m370 140 l3 -123 -166 0 -165 0 0 125 0
125 163 -2 162 -3 3 -122z m396 119 c4 -7 56 -227 56 -238 0 -2 -92 -4 -205
-4 l-205 0 0 125 0 125 174 0 c96 0 177 -4 180 -8z"/>
<path d="M2540 3559 l0 -230 53 3 52 3 3 228 2 227 -55 0 -55 0 0 -231z"/>
<path d="M2680 3560 l0 -230 55 0 55 0 0 230 0 230 -55 0 -55 0 0 -230z"/>
<path d="M1785 3399 c-17 -4 -46 -24 -65 -44 -29 -30 -34 -43 -38 -92 -3 -48
0 -64 20 -93 46 -69 144 -91 208 -47 102 68 97 210 -10 265 -47 23 -67 25
-115 11z m92 -101 c25 -23 29 -48 12 -79 -23 -45 -102 -39 -120 8 -12 33 -12
37 12 67 25 32 64 34 96 4z"/>
<path d="M3095 3403 c-35 -9 -87 -55 -101 -89 -20 -47 -17 -84 9 -134 57 -107
207 -107 264 0 26 50 29 87 9 134 -26 63 -115 107 -181 89z m85 -103 c41 -41
13 -112 -45 -112 -58 0 -86 71 -45 112 11 11 31 20 45 20 14 0 34 -9 45 -20z"/>
</g>
</svg>

