<?xml version="1.0" standalone="no"?>
<!DOCTYPE svg PUBLIC "-//W3C//DTD SVG 20010904//EN"
 "http://www.w3.org/TR/2001/REC-SVG-20010904/DTD/svg10.dtd">
<svg version="1.0" xmlns="http://www.w3.org/2000/svg"
 width="1440.000000pt" height="385.000000pt" viewBox="0 0 1440.000000 385.000000"
 preserveAspectRatio="xMidYMid meet">

<g transform="translate(0.000000,385.000000) scale(0.100000,-0.100000)"
fill="#FFFFFF" stroke="none">
<path d="M8130 3580 c-19 -3 -46 -12 -58 -19 -33 -18 -69 -101 -96 -223 l-23
-103 -72 -22 c-216 -68 -374 -54 -511 46 -55 40 -98 41 -141 3 -94 -84 0 -281
178 -370 103 -53 248 -66 408 -37 43 8 80 13 81 12 1 -1 -4 -42 -12 -92 -50
-333 -67 -615 -61 -987 4 -262 8 -315 26 -393 55 -234 194 -401 376 -450 95
-26 226 -17 328 23 186 72 357 228 485 441 l20 35 7 -40 c48 -286 177 -444
342 -419 64 9 137 50 180 100 66 77 132 241 190 475 l9 35 22 -70 c54 -164
130 -280 220 -333 41 -24 57 -27 132 -27 68 0 94 4 132 23 171 85 296 315 372
686 38 185 46 262 53 506 9 369 -21 577 -95 641 -32 28 -40 31 -89 27 -60 -5
-96 -31 -113 -82 -6 -18 -9 -139 -8 -296 1 -336 -25 -571 -93 -840 -29 -113
-111 -300 -135 -307 -36 -11 -185 364 -233 587 -11 52 -25 145 -32 205 -13
127 -25 156 -73 179 -55 26 -104 17 -125 -22 -5 -10 -21 -83 -35 -162 -47
-264 -131 -551 -221 -760 -21 -47 -44 -100 -52 -119 -8 -18 -16 -31 -19 -29
-9 10 -33 167 -45 303 -12 140 -18 598 -10 835 6 164 -16 210 -98 210 -120 0
-193 -273 -208 -782 l-6 -208 -34 0 c-51 0 -65 -11 -150 -118 -42 -53 -109
-129 -148 -167 -159 -157 -337 -234 -414 -178 -35 26 -78 114 -96 198 -21 101
-38 434 -30 620 9 245 51 738 71 836 4 23 16 29 112 59 59 18 147 48 197 67
140 54 211 66 320 53 109 -13 145 -2 185 58 49 71 26 149 -63 213 -112 81
-263 79 -554 -6 -64 -19 -120 -35 -123 -35 -3 0 -4 24 -2 53 7 114 -64 185
-168 167z"/>
<path d="M2115 3559 c-58 -31 -85 -58 -111 -114 -27 -57 -32 -138 -10 -188 13
-31 210 -290 224 -294 9 -3 192 230 215 274 41 78 30 183 -28 258 -59 78 -203
110 -290 64z m169 -160 c42 -50 29 -108 -29 -136 -35 -17 -38 -17 -73 2 -40
22 -58 58 -49 96 18 73 104 94 151 38z"/>
<path d="M3982 2879 c-146 -72 -226 -212 -407 -710 -47 -127 -87 -234 -90
-237 -26 -26 -38 110 -31 343 11 341 -16 486 -96 535 -45 27 -112 26 -168 -2
-60 -31 -161 -158 -222 -279 -54 -108 -51 -112 -69 86 -6 72 -15 138 -21 148
-15 29 -70 57 -110 57 -64 0 -85 -28 -121 -165 l-31 -120 0 -305 c0 -393 26
-622 100 -885 50 -174 77 -213 163 -229 46 -8 114 25 141 70 l21 34 -17 182
c-34 368 6 760 105 1013 37 97 111 219 123 207 6 -6 5 -68 -3 -163 -17 -224
-16 -468 4 -557 45 -201 140 -298 259 -263 101 31 154 122 267 458 105 314
166 445 254 548 l35 40 12 -43 c16 -53 0 -484 -30 -792 -42 -432 -12 -636 109
-757 95 -94 252 -96 383 -4 102 70 217 216 289 364 37 77 38 78 43 45 27 -187
48 -254 102 -317 58 -67 103 -86 209 -86 75 0 97 4 135 24 73 38 145 106 226
214 42 56 78 104 80 105 1 2 9 -9 17 -25 24 -45 93 -108 153 -138 74 -37 213
-47 295 -20 116 38 255 154 338 283 19 28 35 51 37 49 1 -1 9 -40 19 -87 20
-103 70 -271 96 -321 48 -95 182 -107 248 -23 28 35 27 83 -4 354 -14 118 -25
249 -25 290 0 160 38 306 106 409 46 68 129 158 165 177 24 12 27 11 37 -11
19 -41 50 -175 62 -265 14 -107 43 -160 103 -189 52 -25 85 -26 134 -6 49 20
71 41 95 90 19 37 20 45 9 138 -35 283 -126 452 -266 493 -155 44 -330 -28
-446 -186 l-26 -34 14 113 c12 105 12 115 -5 154 -50 113 -171 73 -238 -79
-58 -132 -96 -360 -98 -591 l-1 -153 -48 0 c-67 0 -93 -19 -157 -113 -140
-207 -257 -274 -342 -198 -32 29 -33 31 -32 108 2 99 30 381 50 496 18 104 10
142 -37 182 -24 20 -41 25 -84 25 -67 0 -106 -29 -131 -98 -103 -283 -224
-538 -312 -662 -50 -71 -120 -150 -132 -150 -17 0 -33 153 -26 256 13 207 47
341 129 517 104 219 212 297 348 249 30 -10 61 -17 69 -14 61 18 49 125 -23
201 -87 92 -228 106 -367 38 -61 -30 -171 -136 -224 -216 -102 -154 -185 -360
-222 -549 -15 -75 -21 -91 -34 -86 -35 15 -71 15 -94 0 -14 -8 -49 -57 -79
-109 -98 -166 -230 -328 -308 -379 l-26 -17 -12 38 c-15 53 -14 175 6 424 9
116 17 322 17 457 1 351 -22 484 -103 573 -75 83 -181 100 -289 46z"/>
<path d="M2035 2869 c-102 -8 -137 -12 -300 -40 -134 -23 -275 -64 -374 -110
-218 -101 -334 -265 -317 -449 11 -121 75 -230 183 -312 50 -39 194 -115 288
-153 219 -88 346 -174 380 -257 25 -64 14 -136 -31 -187 -53 -60 -217 -136
-394 -181 -232 -59 -439 -83 -856 -100 -189 -8 -278 -15 -300 -25 -96 -44
-116 -183 -37 -260 30 -29 44 -35 101 -41 103 -11 608 13 762 36 299 45 342
53 475 91 286 82 476 208 566 374 40 75 52 135 46 239 -9 147 -46 238 -141
343 -87 95 -191 159 -416 255 -52 22 -99 44 -105 48 -5 4 -21 11 -34 15 -36
11 -122 65 -149 93 -28 30 -23 73 15 113 25 27 140 85 197 100 17 4 56 14 86
22 56 16 111 27 230 46 57 10 353 31 435 31 42 0 109 46 129 87 38 79 6 177
-69 213 -46 22 -156 25 -370 9z"/>
<path d="M12715 2746 c-43 -19 -59 -48 -85 -151 -42 -166 -51 -247 -57 -497
-5 -243 -6 -246 -26 -239 -29 11 -94 -3 -118 -25 -11 -10 -41 -49 -66 -87
-126 -189 -256 -269 -336 -206 -38 29 -49 83 -38 181 5 46 12 119 16 163 3 44
15 142 26 219 22 152 18 185 -26 226 -28 26 -88 40 -129 29 -48 -13 -73 -47
-111 -153 -87 -239 -183 -439 -280 -586 -59 -89 -139 -179 -149 -169 -3 2 -10
44 -16 92 -28 230 43 551 170 767 83 142 191 203 290 165 83 -32 120 -18 120
44 -1 54 -31 112 -85 159 -54 47 -95 62 -177 62 -262 0 -509 -329 -615 -819
-24 -110 -27 -147 -27 -296 1 -187 15 -277 59 -373 31 -67 65 -106 120 -135
61 -33 201 -31 270 2 63 31 195 163 255 255 39 60 45 67 55 50 5 -10 30 -39
54 -66 76 -83 162 -118 289 -118 161 0 310 95 439 278 l51 72 16 -70 c29 -130
95 -221 182 -251 91 -31 216 -8 300 56 38 29 111 121 143 180 l22 40 -6 -115
c-11 -222 2 -195 -143 -302 -153 -112 -334 -289 -386 -376 -77 -128 -101 -249
-72 -362 60 -235 287 -342 510 -241 124 56 218 179 279 363 36 107 53 202 73
417 l18 183 96 71 c287 212 363 272 445 343 50 44 98 96 109 117 33 69 -1 146
-73 168 -34 10 -45 9 -94 -14 -73 -33 -176 -104 -327 -225 -69 -55 -126 -100
-127 -99 -1 1 2 74 7 162 5 88 14 340 21 561 14 441 14 442 -44 481 -44 29
-87 36 -137 23 -59 -16 -86 -47 -109 -126 -11 -38 -34 -118 -51 -179 -37 -125
-115 -331 -185 -485 -61 -133 -136 -263 -146 -253 -17 18 -40 139 -50 265 -12
137 -6 456 11 643 12 140 -4 175 -90 189 -21 3 -48 0 -65 -8z m470 -1933 c-27
-159 -94 -335 -142 -372 -57 -46 -113 -14 -113 64 0 66 45 140 151 247 53 54
100 98 103 98 4 0 4 -17 1 -37z"/>
<path d="M460 1984 c-95 -35 -176 -118 -208 -213 -19 -54 -15 -153 9 -216 17
-46 75 -130 125 -182 6 -6 53 -62 104 -123 52 -60 97 -107 101 -103 34 35 265
358 282 393 31 66 30 196 -1 265 -29 63 -93 129 -157 163 -64 33 -187 41 -255
16z m196 -230 c96 -101 -22 -253 -146 -189 -43 22 -60 53 -60 108 0 42 5 54
34 83 30 30 40 34 86 34 47 0 56 -4 86 -36z"/>
</g>
</svg>
