<?xml version="1.0" standalone="no"?>
<!DOCTYPE svg PUBLIC "-//W3C//DTD SVG 20010904//EN"
 "http://www.w3.org/TR/2001/REC-SVG-20010904/DTD/svg10.dtd">
<svg class="message-icon" width="61" height="61" viewBox="50 50 350 350" xmlns="http://www.w3.org/2000/svg" preserveAspectRatio="xMidYMid meet">

<g transform="translate(0.000000,450.000000) scale(0.100000,-0.100000)"
fill="#0059FF" stroke="none">
<path d="M2670 3695 c-242 -66 -433 -263 -485 -501 -24 -108 -17 -213 24 -334
42 -125 177 -396 293 -590 123 -205 319 -501 328 -495 14 8 218 321 308 472
249 413 365 700 348 856 -19 167 -82 304 -191 412 -81 80 -152 125 -257 162
-92 33 -279 42 -368 18z m229 -205 c210 -40 354 -243 320 -452 -42 -261 -318
-409 -556 -298 -87 40 -146 98 -191 188 -35 72 -37 81 -37 171 0 87 3 102 32
163 54 114 145 190 266 223 63 17 99 18 166 5z"/>
<path d="M1305 2546 c-150 -47 -257 -166 -285 -315 -13 -72 -13 -1040 0 -1112
24 -126 110 -236 227 -292 l68 -32 880 0 880 0 65 32 c131 65 214 182 232 331
5 45 8 295 6 578 -4 454 -5 503 -22 547 -22 59 -21 60 -100 -78 -32 -55 -131
-209 -219 -342 -166 -251 -191 -278 -235 -254 -52 28 -446 646 -563 884 l-33
67 -431 -1 c-318 0 -440 -4 -470 -13z m158 -293 c79 -82 271 -282 428 -445
l284 -297 142 144 c78 79 151 149 162 154 44 24 97 -32 75 -79 -5 -10 -86 -97
-179 -194 -125 -128 -177 -176 -194 -176 -28 0 -43 15 -555 547 -221 230 -396
421 -396 431 0 32 29 62 60 62 24 0 53 -25 173 -147z m409 -670 c24 -22 23
-57 -4 -87 -37 -40 -548 -506 -575 -523 -30 -20 -68 -6 -85 32 -10 21 -8 30 8
50 10 14 147 142 303 285 296 271 311 281 353 243z m752 -20 c56 -50 505 -463
533 -490 50 -48 8 -132 -53 -105 -13 7 -155 132 -314 278 -247 227 -290 271
-290 295 0 66 62 78 124 22z"/>
</g>
</svg>

