<?xml version="1.0" standalone="no"?>
<!DOCTYPE svg PUBLIC "-//W3C//DTD SVG 20010904//EN"
 "http://www.w3.org/TR/2001/REC-SVG-20010904/DTD/svg10.dtd">
<svg version="1.0" xmlns="http://www.w3.org/2000/svg"
 width="20px" height="20px" viewBox="0 0 512.000000 512.000000"
 preserveAspectRatio="xMidYMid meet">

<g transform="translate(0.000000,512.000000) scale(0.100000,-0.100000)"
fill="#FFFFFF" stroke="none">
<path d="M808 4747 c-74 -32 -108 -59 -266 -220 -165 -169 -187 -208 -187
-342 0 -163 -54 -98 754 -908 l716 -717 -712 -713 c-586 -586 -716 -721 -734
-762 -19 -40 -23 -69 -23 -145 -1 -145 17 -177 212 -371 197 -196 226 -214
362 -214 169 0 101 -57 913 754 l717 716 718 -716 c811 -811 743 -754 912
-754 89 0 99 2 156 33 82 45 349 313 390 392 26 49 29 65 29 150 0 169 57 101
-754 913 l-716 717 716 718 c811 811 754 743 754 912 0 136 -18 165 -214 362
-192 193 -227 213 -366 213 -163 0 -98 54 -908 -754 l-717 -716 -713 712
c-795 795 -746 754 -897 760 -72 3 -94 0 -142 -20z"/>
</g>
</svg>
